<svg xmlns="http://www.w3.org/2000/svg" width="58.254" height="62.135"><defs><style>.prefix__cls-1,.prefix__cls-4{fill:#f7772d}.prefix__cls-1{opacity:.4}.prefix__cls-3{fill:#fff}</style></defs><g id="prefix__research"><path id="prefix__Path_1058" d="M161.553 466.847h-21.608a4.855 4.855 0 0 1 4.855-4.855h11.9a4.855 4.855 0 0 1 4.855 4.855zm0 0" class="prefix__cls-1" data-name="Path 1058" transform="translate(-122.962 -405.926)"/><path id="prefix__Path_1059" d="M188.973 418h9.709v5.339h-9.709zm0 0" data-name="Path 1059" transform="translate(-166.04 -367.27)" style="fill:#edf2fa"/><path id="prefix__Path_1060" d="M58.3 85.98a4.855 4.855 0 0 1 4.855 4.855v30.583a4.855 4.855 0 0 1-4.855 4.855H14.855A4.855 4.855 0 0 1 10 121.418V90.835a4.855 4.855 0 0 1 4.855-4.855zm0 0" class="prefix__cls-3" data-name="Path 1060" transform="translate(-8.786 -75.546)"/><path id="prefix__Path_1061" d="M14.855 358.245H58.3a4.855 4.855 0 0 0 4.855-4.855v-3.4H10v3.4a4.855 4.855 0 0 0 4.855 4.855zm0 0" class="prefix__cls-1" data-name="Path 1061" transform="translate(-8.786 -307.518)"/><path id="prefix__Path_1062" d="M187.158 24.563A14.564 14.564 0 1 1 172.594 10a14.564 14.564 0 0 1 14.564 14.563zm0 0" class="prefix__cls-3" data-name="Path 1062" transform="translate(-138.853 -8.787)"/><path id="prefix__Path_1063" d="M218.967 61.47A9.466 9.466 0 1 1 209.5 52a9.466 9.466 0 0 1 9.467 9.47zm0 0" class="prefix__cls-1" data-name="Path 1063" transform="translate(-175.759 -45.693)"/><path id="prefix__Path_1064" d="m346.129 202.205 10.084 10.084a2.9 2.9 0 0 0 4.1-4.1L350.232 198.1zm0 0" class="prefix__cls-1" data-name="Path 1064" transform="translate(-304.124 -174.061)"/><path id="prefix__Path_1065" d="M52.374 216.978h9.2a1.214 1.214 0 1 0 0-2.427h-9.2a1.214 1.214 0 1 0 0 2.427zm0 0" class="prefix__cls-4" data-name="Path 1065" transform="translate(-44.951 -188.514)"/><path id="prefix__Path_1066" d="M52.374 264.982h10.012a1.214 1.214 0 1 0 0-2.427H52.374a1.214 1.214 0 1 0 0 2.427zm0 0" class="prefix__cls-4" data-name="Path 1066" transform="translate(-44.951 -230.692)"/><path id="prefix__Path_1067" d="M176.132 264.978a1.214 1.214 0 1 0-.858-.356 1.217 1.217 0 0 0 .858.356zm0 0" class="prefix__cls-4" data-name="Path 1067" transform="translate(-153.69 -230.689)"/><path id="prefix__Path_1068" d="M200.711 63.36a10.68 10.68 0 1 0-10.68-10.68 10.692 10.692 0 0 0 10.68 10.68zm0-18.932a8.252 8.252 0 1 1-8.252 8.252 8.262 8.262 0 0 1 8.252-8.252zm0 0" class="prefix__cls-4" data-name="Path 1068" transform="translate(-166.969 -36.903)"/><path id="prefix__Path_1069" d="M57.051 33.267 55.584 31.8V15.289a6.075 6.075 0 0 0-6.068-6.068h-1.425a15.775 15.775 0 0 0-28.7 0H6.069A6.075 6.075 0 0 0 0 15.289v30.583a6.075 6.075 0 0 0 6.069 6.068H21.72v2.915a6.074 6.074 0 0 0-5.95 6.065 1.213 1.213 0 0 0 1.214 1.214h21.608a1.213 1.213 0 0 0 1.214-1.214 6.074 6.074 0 0 0-5.949-6.065V51.94h15.66a6.075 6.075 0 0 0 6.068-6.068v-5.84a4.117 4.117 0 0 0 1.467-6.765zm-7.535-21.619a3.645 3.645 0 0 1 3.641 3.641v14.083l-5.738-5.738a15.763 15.763 0 0 0 1.551-11.986zM33.742 2.427a13.35 13.35 0 1 1-13.35 13.35 13.365 13.365 0 0 1 13.35-13.35zM6.069 11.648h12.445a15.788 15.788 0 0 0 .086 8.564H7.422a1.214 1.214 0 0 0 0 2.427h12.115A15.768 15.768 0 0 0 41.6 29.454l9.632 9.632a4.09 4.09 0 0 0 1.926 1.087v1.087H2.427V15.289a3.645 3.645 0 0 1 3.641-3.641zm31.1 48.059H18.405a3.647 3.647 0 0 1 3.433-2.428h11.9a3.648 3.648 0 0 1 3.432 2.428zm-5.742-4.855h-7.28V51.94h7.282zm18.087-5.34H6.068a3.645 3.645 0 0 1-3.641-3.641v-2.184h50.73v2.184a3.645 3.645 0 0 1-3.641 3.641zm5.821-12.142a1.69 1.69 0 0 1-2.387 0l-9.313-9.313a15.87 15.87 0 0 0 2.387-2.387l9.313 9.313a1.69 1.69 0 0 1 0 2.387zm0 0" class="prefix__cls-4" data-name="Path 1069"/><path id="prefix__Path_1070" d="M269.249 87.435a3.037 3.037 0 0 1 3.034 3.033 1.214 1.214 0 1 0 2.427 0 5.467 5.467 0 0 0-5.461-5.461 1.214 1.214 0 1 0 0 2.427zm0 0" class="prefix__cls-4" data-name="Path 1070" transform="translate(-235.507 -74.692)"/></g></svg>