<svg xmlns="http://www.w3.org/2000/svg" width="68.302" height="62.21"><defs><style>.prefix__cls-1,.prefix__cls-3{fill:#5e7cf6}.prefix__cls-1{opacity:.4}.prefix__cls-2{fill:#fff}</style></defs><g id="prefix__ticket" transform="translate(.001)"><path id="prefix__Subtraction_12" d="m14.2 33.155-4.19-2.42a3.421 3.421 0 0 0-1.249-3.944H8.9V9.543L14.214.336a.673.673 0 0 1 .919-.246l3.609 2.084a3.416 3.416 0 0 0 5.821 3.361l3.609 2.084a.675.675 0 0 1 .247.919L14.205 33.154zM4.192 27.374 0 24.954l.557-.965h.14a3.414 3.414 0 0 1 3.361 2.8h.772a3.4 3.4 0 0 0-.638.583z" class="prefix__cls-1" data-name="Subtraction 12" transform="translate(38.793 3.308)"/><path id="prefix__Path_1024" d="M246.117 7.5a3.416 3.416 0 0 1-6.722 0h-4.167a.672.672 0 0 0-.672.672V36.6h4.839a3.416 3.416 0 0 1 6.722 0h4.84V8.176a.672.672 0 0 0-.673-.672zm0 0" class="prefix__cls-1" data-name="Path 1024" transform="translate(-203.265 -6.503)"/><path id="prefix__Path_1026" d="M65.5 134.848H37.7v-8.895h-2.35a4.38 4.38 0 0 0-3.8 2.2l-6.468 11.291H7.5v23.447h21.744a3.674 3.674 0 0 0 3.674 3.674h24.615a4.018 4.018 0 0 0 4.046-3.854 3.965 3.965 0 0 0-3.964-4.077h2.567a4.019 4.019 0 0 0 4.046-3.854 3.965 3.965 0 0 0-3.964-4.077h2.566a4.019 4.019 0 0 0 4.046-3.854 3.966 3.966 0 0 0-3.964-4.077h2.671a3.965 3.965 0 0 0 3.964-4.076 4.018 4.018 0 0 0-4.046-3.854zm0 0" class="prefix__cls-2" data-name="Path 1026" transform="translate(-6.5 -109.151)"/><path id="prefix__Path_1029" d="M58.918 211.912v24a2.017 2.017 0 0 0 2.017 2.017h2.183a2.017 2.017 0 0 0 2.017-2.017v-24a2.017 2.017 0 0 0-2.017-2.017h-2.183a2.017 2.017 0 0 0-2.017 2.017zm0 0" class="prefix__cls-1" data-name="Path 1029" transform="translate(-51.059 -181.894)"/><path id="prefix__Path_1030" d="M63.119 209.9h-2.184a2.017 2.017 0 0 0-2.017 2.017V219h6.218v-7.092a2.017 2.017 0 0 0-2.017-2.008zm0 0" class="prefix__cls-2" data-name="Path 1030" transform="translate(-51.059 -181.894)"/><path id="prefix__Path_1031" d="M68.244 11.078a1.659 1.659 0 0 0-.78-1.017l-3.61-2.084a1 1 0 0 0-1.264.22 2.415 2.415 0 0 1-4.115-2.377 1 1 0 0 0-.442-1.2l-3.606-2.086a1.67 1.67 0 0 0-2.287.61l-3.449 5.974V1.674A1.675 1.675 0 0 0 47.018 0h-4.167a1 1 0 0 0-.984.822 2.416 2.416 0 0 1-4.754 0A1 1 0 0 0 36.128 0h-4.167a1.675 1.675 0 0 0-1.673 1.674v3.734a1 1 0 1 0 2 0V2h3.088A4.417 4.417 0 0 0 43.6 2h3.09v10.836a.291.291 0 0 0 0 .03V24.7H32.2s.055-3.908.085-15.254a1 1 0 1 0-2 0V15.8H28.85a5.393 5.393 0 0 0-4.669 2.706L18 29.3h-3.01a3.023 3.023 0 0 0-2.93-2.3H9.876a3.024 3.024 0 0 0-2.931 2.3H1a1 1 0 0 0 0 2h5.858v21.443H1a1 1 0 1 0 0 2h5.946a3.023 3.023 0 0 0 2.93 2.3h.091v2.152a3.022 3.022 0 0 0 3.018 3.019h2.184a3.021 3.021 0 0 0 3.017-3.019v-4.451h3.664a4.682 4.682 0 0 0 4.567 3.674h2.076a1 1 0 1 0 0-2h-2.075a2.676 2.676 0 0 1-2.673-2.673 1 1 0 0 0-1-1h-7.668V31.3h3.5a1 1 0 0 0 .869-.5l6.471-11.3a3.387 3.387 0 0 1 2.932-1.7H30.2v7.9a1 1 0 0 0 1 1h21.218a1 1 0 0 0 0-2H48.69V13.12l5.018-8.69 2.674 1.543a4.417 4.417 0 0 0 7.123 4.113l2.673 1.544-7.544 13.07h-2.216a1 1 0 1 0 0 2h2.761a3.023 3.023 0 0 1 2.867 2.875 2.964 2.964 0 0 1-2.963 3.048h-6.644a1 1 0 1 0 0 2h3.974a2.965 2.965 0 0 1 2.964 3.048 3.027 3.027 0 0 1-3.046 2.881h-5.486a1 1 0 0 0 0 2h2.918a2.965 2.965 0 0 1 2.964 3.048 3.027 3.027 0 0 1-3.046 2.881h-5a1 1 0 1 0 0 2h2.433a2.965 2.965 0 0 1 2.964 3.048 3.026 3.026 0 0 1-3.046 2.88h-18.5a1 1 0 1 0 0 2h18.5a5.042 5.042 0 0 0 5.046-4.826 4.925 4.925 0 0 0-1.109-3.27 5.022 5.022 0 0 0 3.758-4.66 4.922 4.922 0 0 0-1.109-3.27 5.022 5.022 0 0 0 3.758-4.66 4.927 4.927 0 0 0-1.091-3.249 4.972 4.972 0 0 0 3.762-4.959 5.008 5.008 0 0 0-3.286-4.51l7.312-12.666a1.661 1.661 0 0 0 .169-1.27zM9.876 29h2.184a1.018 1.018 0 0 1 1.017 1.017v6.092H8.86v-6.091A1.018 1.018 0 0 1 9.876 29zM8.86 54.022V38.11h4.217v15.912a1.019 1.019 0 0 1-1.017 1.017H9.876a1.018 1.018 0 0 1-1.016-1.017zm7.325 5.17a1.018 1.018 0 0 1-1.016 1.018h-2.184a1.018 1.018 0 0 1-1.017-1.018V57.04h.092a3.023 3.023 0 0 0 2.93-2.3h1.195zm0 0" class="prefix__cls-3" data-name="Path 1031"/><path id="prefix__Path_1032" d="M385.238 91.684a1 1 0 0 0-1 1.733l.243.14a1 1 0 0 0 1-1.733zm0 0" class="prefix__cls-3" data-name="Path 1032" transform="translate(-332.546 -79.337)"/><path id="prefix__Path_1033" d="M410.326 108.48a1 1 0 1 0 1-1.733l-.242-.14a1 1 0 1 0-1 1.733zm0 0" class="prefix__cls-3" data-name="Path 1033" transform="translate(-354.945 -92.269)"/><path id="prefix__Path_1034" d="M436.173 123.4a1 1 0 1 0 1-1.733l-.243-.14a1 1 0 0 0-1 1.733zm0 0" class="prefix__cls-3" data-name="Path 1034" transform="translate(-377.343 -105.202)"/><path id="prefix__Path_1035" d="M258.913 72.22a1 1 0 1 0 0-2h-.28a1 1 0 1 0 0 2zm0 0" class="prefix__cls-3" data-name="Path 1035" transform="translate(-223.264 -60.851)"/><path id="prefix__Path_1036" d="M288.757 72.22a1 1 0 1 0 0-2h-.28a1 1 0 1 0 0 2zm0 0" class="prefix__cls-3" data-name="Path 1036" transform="translate(-249.127 -60.851)"/><path id="prefix__Path_1037" d="M318.6 72.22a1 1 0 1 0 0-2h-.28a1 1 0 1 0 0 2zm0 0" class="prefix__cls-3" data-name="Path 1037" transform="translate(-274.99 -60.851)"/><path id="prefix__Path_1038" d="M75.723 301.163a1 1 0 0 0 1-1v-.134a1 1 0 0 0-2 0v.134a1 1 0 0 0 1 1zm0 0" class="prefix__cls-3" data-name="Path 1038" transform="translate(-64.755 -259.136)"/><path id="prefix__Path_1039" d="M75.723 332.983a1 1 0 0 0 1-1v-.134a1 1 0 1 0-2 0v.134a1 1 0 0 0 1 1zm0 0" class="prefix__cls-3" data-name="Path 1039" transform="translate(-64.755 -286.711)"/><path id="prefix__Path_1040" d="M75.723 364.8a1 1 0 0 0 1-1v-.134a1 1 0 0 0-2 0v.134a1 1 0 0 0 1 1zm0 0" class="prefix__cls-3" data-name="Path 1040" transform="translate(-64.755 -314.287)"/></g></svg>