<svg xmlns="http://www.w3.org/2000/svg" id="prefix__ticket_1_" width="66.654" height="62.21" data-name="ticket (1)"><defs><style>.prefix__cls-1,.prefix__cls-2{fill:#f65e73}.prefix__cls-1{opacity:.4}.prefix__cls-3{fill:#fff}</style></defs><path id="prefix__Rectangle_757" d="M0 0h20v15H0z" class="prefix__cls-1" data-name="Rectangle 757" transform="translate(39 17.313)"/><path id="prefix__Path_1042" d="M61.1 0H5.555A5.561 5.561 0 0 0 0 5.555v39.992a3.333 3.333 0 0 0 3.333 3.333H24.01l-1.481 4.444H10a1.111 1.111 0 0 0-1.111 1.111V61.1A1.111 1.111 0 0 0 10 62.21h46.656a1.111 1.111 0 0 0 1.111-1.11v-6.666a1.111 1.111 0 0 0-1.111-1.111H44.125l-1.481-4.443h20.677a3.333 3.333 0 0 0 3.333-3.333V5.555A5.561 5.561 0 0 0 61.1 0zm-5.555 55.545v4.444H11.109v-4.444zm-30.674-2.222 1.481-4.444H40.3l1.481 4.444zm39.561-7.776a1.111 1.111 0 0 1-1.111 1.111H3.333a1.111 1.111 0 0 1-1.111-1.111v-5.555h62.21zm0-7.776H2.222V5.555a3.333 3.333 0 0 1 3.333-3.333H61.1a3.333 3.333 0 0 1 3.333 3.333zm0 0" class="prefix__cls-2" data-name="Path 1042"/><path id="prefix__Path_1043" d="M369.111 306.222h2.222a1.111 1.111 0 0 0 0-2.222h-2.222a1.111 1.111 0 0 0 0 2.222zm0 0" class="prefix__cls-2" data-name="Path 1043" transform="translate(-316.899 -261.786)"/><path id="prefix__Path_1044" d="M417.111 306.222h2.222a1.111 1.111 0 0 0 0-2.222h-2.222a1.111 1.111 0 0 0 0 2.222zm0 0" class="prefix__cls-2" data-name="Path 1044" transform="translate(-358.233 -261.786)"/><path id="prefix__Path_1045" d="M293.107 48h-20a1.111 1.111 0 0 0 0 2.222h20a1.111 1.111 0 1 0 0-2.222zm0 0" class="prefix__cls-2" data-name="Path 1045" transform="translate(-234.229 -41.335)"/><path id="prefix__Path_1046" d="M273.111 82.222h17.774a1.111 1.111 0 0 0 0-2.222h-17.774a1.111 1.111 0 0 0 0 2.222zm0 0" class="prefix__cls-2" data-name="Path 1046" transform="translate(-234.229 -68.891)"/><path id="prefix__Path_1047" d="M293.107 112h-20a1.111 1.111 0 0 0-1.107 1.111v15.553a1.111 1.111 0 0 0 1.111 1.111h20a1.111 1.111 0 0 0 1.111-1.111v-15.553a1.111 1.111 0 0 0-1.115-1.111zM292 127.553h-17.778v-13.331H292zm0 0" class="prefix__cls-2" data-name="Path 1047" transform="translate(-234.229 -96.447)"/><path id="prefix__Path_1048" d="M306.632 152.561a1.11 1.11 0 0 0 1.452.1l8.887-6.661a1.111 1.111 0 0 0-1.333-1.777l-8.116 6.088-1.541-1.541a1.111 1.111 0 0 0-1.571 1.571zm0 0" class="prefix__cls-3" data-name="Path 1048" transform="translate(-261.871 -124.003)"/><path id="prefix__Path_1050" d="M33.111 34.222h1.111a1.111 1.111 0 0 0 0-2.222h-1.111a1.111 1.111 0 0 0 0 2.222zm0 0" class="prefix__cls-2" data-name="Path 1050" transform="translate(-27.556 -27.556)"/><path id="prefix__Path_1051" d="M73.111 34.222h1.111a1.111 1.111 0 0 0 0-2.222h-1.111a1.111 1.111 0 0 0 0 2.222zm0 0" class="prefix__cls-2" data-name="Path 1051" transform="translate(-62.002 -27.556)"/><g id="prefix__ship" transform="translate(8.718 4.982)"><path id="prefix__Path_1057" d="m39.384 20.385 7.905-3.834 7.571 3.834-1.882 4.2-1.878 8.864-3.806.711-4.6-1.046-1.554-8.532z" class="prefix__cls-1" data-name="Path 1057" transform="translate(-34.786 -6.244)"/><g id="prefix__Group_989" data-name="Group 989"><g id="prefix__Group_988" data-name="Group 988"><path id="prefix__Path_1052" d="M56.059 25.532h-1.186a8.393 8.393 0 0 0-1.637.162l-4.245.849 1.645-8.216 1.935-3.869a.491.491 0 0 0-.219-.659l-3.726-1.863L46.715 4.3a.491.491 0 0 0-.476-.372h-1.473V.491a.491.491 0 0 0-.982 0v3.437h-1.473a.491.491 0 0 0-.476.372l-1.909 7.637L36.2 13.8a.491.491 0 0 0-.219.659l1.935 3.869 1.593 7.962-2.031-.508a8.325 8.325 0 0 0-2.025-.25h-2.962a.491.491 0 0 0 0 .982h2.961a7.378 7.378 0 0 1 1.787.219l4.221 1.055.984.247a8.326 8.326 0 0 0 .981.181h.023l.076.007a8.456 8.456 0 0 0 .946.055 8.339 8.339 0 0 0 1.635-.161l7.324-1.465a7.459 7.459 0 0 1 1.445-.142h1.186a.491.491 0 1 0 0-.982zM42.695 4.91h3.161l.246.982h-3.653zm-.486 1.943a.481.481 0 0 0 .1.021h3.928a.481.481 0 0 0 .1-.021l1.126 4.5-2.968-1.481h-.013a.479.479 0 0 0-.206-.049.486.486 0 0 0-.206.049h-.013l-2.974 1.487zm3.7 20.3a7.39 7.39 0 0 1-2.642.038c-.2-.032-.4-.064-.59-.113l-.772-.193-1.346-.339-1.7-8.48a.494.494 0 0 0-.042-.123l-1.745-3.489 3.489-1.745 3.218-1.609v5.1a.491.491 0 0 0 .982 0v-5.1l3.218 1.609 3.489 1.745-1.745 3.489a.494.494 0 0 0-.042.123l-1.737 8.68z" class="prefix__cls-2" data-name="Path 1052" transform="translate(-32)"/></g></g><g id="prefix__Group_995" data-name="Group 995" transform="translate(9.82 13.748)"><g id="prefix__Group_994" data-name="Group 994"><path id="prefix__Path_1055" d="M192.491 224a.491.491 0 0 0-.491.491v1.964a.491.491 0 0 0 .982 0v-1.964a.491.491 0 0 0-.491-.491z" class="prefix__cls-3" data-name="Path 1055" transform="translate(-192 -224)"/></g></g><g id="prefix__Group_997" data-name="Group 997" transform="translate(13.748 13.748)"><g id="prefix__Group_996" data-name="Group 996"><path id="prefix__Path_1056" d="M256.491 224a.491.491 0 0 0-.491.491v1.964a.491.491 0 0 0 .982 0v-1.964a.491.491 0 0 0-.491-.491z" class="prefix__cls-3" data-name="Path 1056" transform="translate(-256 -224)"/></g></g></g></svg>